<svg version="1.1" id="Capa_1" xmlns="http://www.w3.org/2000/svg" xmlns:xlink="http://www.w3.org/1999/xlink" viewBox="0 0 327.638 327.638" xml:space="preserve" fill="#000000"><g id="SVGRepo_bgCarrier" stroke-width="0"></g><g id="SVGRepo_tracerCarrier" stroke-linecap="round" stroke-linejoin="round"></g><g id="SVGRepo_iconCarrier"> <g> <path style="fill:#030303;" d="M327.294,61.106c-0.835-2.324-3.042-3.883-5.512-3.883H175.641c-1.475,0-2.893,0.555-3.974,1.553 l-49.009,45.261L61.705,43.083c-0.066-0.062-0.152-0.1-0.217-0.163c-0.211-0.194-0.452-0.352-0.689-0.518 c-0.255-0.168-0.495-0.331-0.764-0.454c-0.08-0.037-0.14-0.101-0.223-0.135c-0.169-0.071-0.343-0.077-0.515-0.128 c-0.298-0.094-0.586-0.183-0.895-0.223c-0.28-0.043-0.552-0.043-0.832-0.043s-0.549,0-0.832,0.043 c-0.309,0.046-0.603,0.135-0.9,0.229c-0.163,0.052-0.34,0.058-0.503,0.129c-0.083,0.034-0.14,0.092-0.217,0.135 c-0.274,0.128-0.526,0.297-0.778,0.469c-0.234,0.157-0.469,0.314-0.68,0.503c-0.071,0.063-0.151,0.1-0.223,0.163L1.717,94.809 c-1.675,1.675-2.179,4.191-1.27,6.381c0.906,2.19,3.045,3.614,5.409,3.614h45.864v67.335c0,0.017,0.006,0.028,0.006,0.04 s-0.006,0.023-0.006,0.034c0,0.046,0.029,0.092,0.035,0.144c0.031,0.691,0.194,1.344,0.446,1.955 c0.077,0.178,0.157,0.349,0.246,0.521c0.3,0.56,0.669,1.075,1.129,1.509c0.06,0.058,0.083,0.138,0.143,0.195l63.427,55.625 c0.049,0.039,0.112,0.057,0.166,0.103c0.274,0.897,0.698,1.749,1.381,2.436l49.798,49.804c1.121,1.115,2.622,1.716,4.144,1.716 c0.755,0,1.515-0.144,2.241-0.446c2.189-0.903,3.613-3.042,3.613-5.409v-92.174L325.504,67.61 C327.409,66.041,328.129,63.437,327.294,61.106z M63.42,157.998V98.942V61.358l48.323,48.323L63.42,157.998z M19.98,93.087 l31.729-31.729v31.729H19.98z M166.764,266.229l-35.4-35.406l35.4-31.306V266.229z M121.118,220.084l-54.805-48.065L177.934,68.935 h127.472L121.118,220.084z"></path> </g> </g></svg>