<?xml version="1.0" encoding="iso-8859-1"?>
<!-- Uploaded to: SVG Repo, www.svgrepo.com, Generator: SVG Repo Mixer Tools -->
<svg height="800px" width="800px" version="1.1" id="Capa_1" xmlns="http://www.w3.org/2000/svg" xmlns:xlink="http://www.w3.org/1999/xlink" 
	 viewBox="0 0 339.92 339.92" xml:space="preserve">
<g>
	<path style="fill:#010002;" d="M339.305,48.639c0.016-0.044,0.022-0.087,0.038-0.125c0.364-0.925,0.577-1.925,0.577-2.975
		s-0.218-2.051-0.577-2.975c-0.016-0.044-0.022-0.087-0.038-0.125c-0.827-2.007-2.431-3.612-4.438-4.438
		c-0.038-0.011-0.082-0.022-0.12-0.033c-0.925-0.359-1.925-0.582-2.975-0.582h-73.427c-1.055,0-2.051,0.223-2.975,0.582
		c-0.038,0.011-0.082,0.022-0.12,0.033c-1.012,0.413-1.92,1.023-2.676,1.784l-43.627,43.627L130.858,5.328
		c-0.756-0.756-1.664-1.36-2.676-1.773c-0.038-0.022-0.082-0.022-0.12-0.044c-0.925-0.359-1.925-0.571-2.975-0.571H8.148
		c-1.055,0-2.051,0.212-2.975,0.571c-0.038,0.022-0.082,0.022-0.12,0.044C3.04,4.381,1.436,5.986,0.615,7.993
		C0.598,8.036,0.593,8.08,0.577,8.107C0.212,9.032,0,10.038,0,11.093s0.218,2.051,0.577,2.975c0.016,0.044,0.022,0.087,0.038,0.114
		c0.413,1.012,1.017,1.925,1.779,2.676L116.94,131.411v42.642l-48.826,48.826c0,0.011-0.005,0.011-0.005,0.011l-3.965,3.965
		c-3.187,3.187-3.187,8.349,0,11.536c0.462,0.468,1.039,0.723,1.577,1.05v85.306c0,0.789,0.147,1.528,0.354,2.252
		c-0.615,2.654-0.033,5.537,2.034,7.593c1.594,1.594,3.682,2.388,5.771,2.388s4.177-0.794,5.771-2.388l184.455-184.471
		c0.761-0.756,1.36-1.67,1.779-2.676c0.016-0.033,0.022-0.076,0.038-0.114c0.364-0.925,0.577-1.925,0.577-2.975v-22.012
		l71.034-71.029C338.288,50.553,338.892,49.65,339.305,48.639z M133.241,30.793l69.919,69.914c0,0.011,0,0.011,0.005,0.011
		c0.005,0,0.005,0,0.005,0.011l43.627,43.627L133.241,257.918V30.793z M250.181,65.233v59.427l-29.708-29.714L250.181,65.233z
		 M27.837,19.257h89.086v89.086L27.837,19.257z M116.924,260.18l-31.519-31.519l31.519-31.53
		C116.924,197.131,116.924,260.18,116.924,260.18z M112.415,278.738l-30.388,30.393v-60.776L112.415,278.738z M266.498,53.697
		h45.574l-45.574,45.574V53.697z"/>
</g>
</svg>